<svg version="1.1" id="Layer_1" xmlns="http://www.w3.org/2000/svg" xmlns:xlink="http://www.w3.org/1999/xlink" x="0px" y="0px"
	 width="100%" viewBox="0 0 1024 672" enable-background="new 0 0 1024 672" xml:space="preserve">
<path fill="#000000" opacity="1.000000" stroke="none" 
	d="
M219.799316,325.761719 
	C221.892532,307.980164 222.807465,290.497192 229.810715,274.064240 
	C233.038284,266.490814 233.217789,258.155426 232.713989,249.932373 
	C231.614578,231.987427 229.714264,214.046295 229.651047,196.098282 
	C229.605133,183.057022 230.964996,169.850403 239.722916,158.712463 
	C244.150681,153.081436 249.846817,149.212723 256.315613,148.550140 
	C268.828247,147.268478 280.651367,142.557663 293.069855,141.728409 
	C300.785980,141.213165 308.372009,141.404022 315.034576,136.906876 
	C319.501465,133.891785 324.350372,131.785995 329.412079,130.092407 
	C334.488068,128.394028 336.613892,123.737587 339.224609,119.830521 
	C346.051819,109.613380 350.125671,98.388229 352.365570,86.148659 
	C355.396149,69.588493 360.515503,62.805782 377.425903,58.388840 
	C392.332672,54.495239 407.053101,55.043365 421.787415,59.332325 
	C433.015900,62.600796 444.488953,64.695320 456.211273,65.000420 
	C467.769653,65.301262 478.229828,70.011566 489.154266,72.875534 
	C500.222260,75.777145 511.125763,80.023659 522.961487,77.483337 
	C523.872314,77.287842 524.987366,77.541473 525.891113,77.888985 
	C547.068054,86.031975 568.760254,85.067390 590.850403,82.820274 
	C602.836548,81.600983 614.993103,80.180824 627.164246,81.023224 
	C639.378662,81.868622 650.393555,77.626022 661.247314,72.842957 
	C665.802368,70.835587 670.035706,68.198303 675.132019,67.413605 
	C683.287781,66.157837 689.390320,68.892403 695.129822,74.850311 
	C704.213379,84.279549 712.533447,94.533539 723.302063,102.288353 
	C729.298340,106.606483 735.943726,108.974060 743.113770,110.009819 
	C752.369019,111.346809 760.723083,114.440720 768.114624,120.446152 
	C776.184143,127.002403 786.080322,130.275116 795.978027,132.234879 
	C817.355164,136.467590 827.015808,151.765533 835.227844,169.745010 
	C845.009399,191.160690 844.637634,213.226883 840.828491,235.405090 
	C837.185364,256.616730 837.418884,277.474976 842.219910,298.343628 
	C846.753723,318.050842 844.078064,337.719971 842.765930,357.504272 
	C841.574646,375.464600 837.950378,392.900909 832.702820,409.868164 
	C826.342163,430.434174 822.390137,451.801147 812.460144,471.269684 
	C806.939331,482.093719 798.194824,488.940613 788.244751,495.001251 
	C777.905457,501.298950 767.790344,507.843872 758.993042,516.427917 
	C754.718994,520.598328 749.087341,523.533997 744.146606,527.146423 
	C740.509521,529.805725 736.740356,532.267334 733.737793,535.668701 
	C727.923828,542.254700 720.506042,546.725220 713.254639,551.443420 
	C710.757507,553.068176 708.631592,555.267883 706.120789,556.866760 
	C692.126160,565.778564 677.973755,574.445312 664.058838,583.478638 
	C654.425354,589.732483 643.740723,593.428772 632.968933,596.831665 
	C624.062317,599.645386 617.502258,605.776917 610.338501,611.142700 
	C595.816895,622.019592 581.511169,633.060791 562.931946,636.726196 
	C553.190796,638.647949 545.239136,645.276184 536.343933,649.509705 
	C519.814270,657.376648 502.501068,659.584229 484.741272,657.251038 
	C467.890991,655.037292 451.957092,648.512024 435.231964,645.286316 
	C425.293671,643.369507 415.740753,644.407654 405.965393,645.257141 
	C385.727203,647.015869 365.383423,649.492065 345.941284,640.640991 
	C330.464661,640.081177 318.715057,631.557495 306.487396,623.263367 
	C295.931610,616.103394 284.358154,610.613098 274.671783,601.905029 
	C270.026794,597.729126 263.446198,595.589478 257.796570,592.409180 
	C243.987961,584.635986 239.361816,572.808350 237.625565,557.536865 
	C235.288788,536.983337 235.745895,516.319336 233.313690,495.833344 
	C232.823669,491.705841 234.216370,487.892914 235.148010,484.051453 
	C236.937637,476.672089 236.141083,469.379669 232.351593,463.241272 
	C224.366974,450.307404 222.756516,436.038147 222.099503,421.525116 
	C221.384155,405.723450 220.741776,389.912933 220.977722,374.073883 
	C221.146317,362.755859 218.598755,351.547516 219.097855,340.186279 
	C219.302307,335.532135 219.552368,330.880035 219.799316,325.761719 
M390.659973,174.830994 
	C384.823578,169.612625 379.989777,163.244919 372.116119,158.100281 
	C372.116119,161.791275 372.120697,164.228134 372.115387,166.664963 
	C372.083801,181.160934 372.342957,195.649673 373.290924,210.118347 
	C373.547913,214.040741 373.585938,217.834763 369.363922,220.121506 
	C372.453491,225.487503 377.463898,228.383987 381.440094,232.311050 
	C392.911163,243.640350 405.002869,254.311615 416.602264,265.481842 
	C436.604156,284.743622 457.839508,302.658630 477.287506,322.543274 
	C494.464111,340.105530 512.877075,356.454285 530.602844,373.485870 
	C537.368042,379.986084 538.349670,380.116547 545.117615,373.719849 
	C554.286865,365.053619 563.615906,356.556671 572.815735,347.922394 
	C591.096863,330.765076 609.398193,313.628357 627.565125,296.350586 
	C635.626709,288.683624 644.321106,281.642639 651.317078,272.894562 
	C652.227844,271.755768 652.797241,269.954987 654.633057,270.370544 
	C656.592834,270.814178 656.976868,272.704865 656.994202,274.360321 
	C657.053650,280.020844 657.247864,285.705322 656.839478,291.340698 
	C655.464111,310.318848 655.958679,329.300629 656.617371,348.272308 
	C656.749817,352.088623 657.009644,355.211853 652.201660,356.204346 
	C655.326416,361.786499 659.688538,365.479156 663.161560,369.863251 
	C668.189148,376.209595 673.509583,382.326538 678.779480,388.477570 
	C685.134521,395.895081 691.552795,403.258636 697.977600,410.615906 
	C699.429504,412.278564 701.073669,413.660645 703.651306,412.491852 
	C700.763428,410.239410 698.805298,407.614380 699.200623,403.816071 
	C701.461426,382.097076 701.713196,360.350250 701.174927,338.516449 
	C700.271240,301.866638 700.495911,265.197144 701.144775,228.538406 
	C701.220886,224.237274 701.836914,219.896759 702.691711,215.673508 
	C703.402344,212.162628 705.566589,211.384079 708.435425,213.969772 
	C711.280701,216.534195 714.245728,218.973846 716.984924,221.645859 
	C720.371094,224.948990 724.310120,225.645355 728.513611,224.057846 
	C734.837280,221.669647 740.522827,218.304962 743.605286,211.840805 
	C747.214355,204.272232 749.432373,196.342438 750.823120,188.036697 
	C753.608398,171.401917 750.163391,157.031967 738.723083,144.104507 
	C731.385498,135.813095 723.280701,134.724960 713.555176,137.170990 
	C707.829956,138.610916 703.645264,142.317810 702.594482,147.715302 
	C701.015564,155.825989 696.200073,161.391312 690.833191,166.950806 
	C670.810425,187.692215 649.429749,207.044052 629.069824,227.440384 
	C623.988525,232.530762 619.116882,237.705902 615.593933,244.061386 
	C613.796143,247.304535 613.141846,250.253052 614.593018,253.959702 
	C615.946838,257.417816 617.894348,260.960449 616.702087,265.034576 
	C614.900574,271.190369 604.736084,280.638062 596.227783,278.748108 
	C583.579712,275.938568 573.582458,280.870148 564.776428,289.633575 
	C557.462402,296.912292 549.890991,303.944916 542.212769,310.840607 
	C537.236145,315.310028 533.709534,314.921295 529.530457,309.723267 
	C523.613586,302.363739 515.954773,297.066956 508.517029,291.500061 
	C507.050171,290.402191 505.263824,289.511475 503.411835,290.630035 
	C501.720856,291.651306 502.041107,293.520386 501.969116,295.153168 
	C501.858459,297.663208 502.983551,299.633911 504.736938,301.335236 
	C506.649719,303.191223 508.667694,304.965271 510.387024,306.989746 
	C520.403870,318.784058 533.037415,325.188354 548.539551,325.984924 
	C554.682495,326.300598 555.826172,328.491577 552.870117,334.030670 
	C549.650513,340.063782 545.894592,345.769135 541.832458,351.268890 
	C540.103882,353.609222 538.987671,355.973297 539.452637,359.111664 
	C540.236023,364.399353 538.769165,365.654114 533.481201,364.993011 
	C530.242004,364.588013 528.023560,362.729675 526.205322,360.203461 
	C523.947205,357.066040 521.447876,353.625854 518.006409,352.326508 
	C507.423340,348.330811 500.179169,340.167206 492.349304,332.805237 
	C474.423706,315.950775 457.122375,298.418732 438.889954,281.910156 
	C429.966187,273.830139 421.963318,265.964905 419.385498,253.546173 
	C417.938141,246.573441 419.234558,244.044037 426.546143,245.496643 
	C435.302612,247.236313 443.957611,249.514404 452.608612,251.745117 
	C456.423981,252.728958 460.225525,251.884674 461.941132,248.990341 
	C463.416718,246.500931 462.086182,242.877823 459.559814,240.470581 
	C458.233795,239.207077 457.038757,237.805878 455.709839,236.545654 
	C434.194427,216.142548 412.667023,195.752106 390.659973,174.830994 
M348.967041,473.486176 
	C341.742493,479.157593 337.541443,488.312347 328.033173,491.426910 
	C326.128540,492.050812 323.819580,492.300262 322.218994,494.223602 
	C323.744293,496.202911 325.842194,495.707428 327.732117,495.709106 
	C346.526947,495.725922 365.321747,495.706116 384.116577,495.700806 
	C429.596893,495.687988 475.077240,495.684570 520.557556,495.644897 
	C522.876709,495.642883 525.371826,496.077606 529.001953,493.346893 
	C517.638855,492.861420 513.103210,485.748871 507.900879,478.647705 
	C501.207397,469.511108 491.546204,463.044189 483.671448,454.946777 
	C477.664825,448.770325 471.005829,446.752472 462.652466,447.063477 
	C449.509460,447.552795 436.335205,447.169525 423.174652,447.242462 
	C419.545044,447.262573 417.668457,446.109680 417.693237,442.046631 
	C417.855743,415.398956 416.617004,388.768433 416.814941,362.112427 
	C416.995453,337.805908 417.634674,313.493958 416.847229,289.184540 
	C416.743805,285.991791 416.898407,282.581848 414.351685,280.296143 
	C405.586853,272.429565 396.672241,264.729034 387.756622,257.032532 
	C386.929443,256.318451 385.508331,255.475235 384.674774,255.726440 
	C380.955231,256.847473 378.361786,254.899063 376.007233,252.792084 
	C373.707489,253.879059 374.185669,255.753098 374.012756,257.310791 
	C372.926331,267.097931 372.942993,276.931549 372.948944,286.757111 
	C372.981323,340.232941 373.040649,393.708801 373.161896,447.184509 
	C373.168427,450.071350 372.416443,452.270203 370.222595,454.214874 
	C363.244232,460.400543 356.382111,466.717285 348.967041,473.486176 
M628.207275,397.537628 
	C626.718079,397.377563 626.015930,396.196014 625.092407,395.238892 
	C619.904236,389.862518 615.480957,383.781311 609.598755,379.032562 
	C604.452637,374.878052 602.077881,374.772278 597.976990,379.965424 
	C593.699402,385.382355 588.749329,390.170319 583.201233,394.060822 
	C577.859070,397.806946 573.171143,402.885315 566.239929,404.090881 
	C561.979187,404.832001 557.762390,405.827423 553.528320,406.720154 
	C503.285645,417.313782 463.811859,378.901215 462.841400,337.217621 
	C462.562256,325.226837 457.996979,316.571075 448.482086,309.960846 
	C447.398285,309.207916 446.506531,308.177246 445.531860,307.268768 
	C438.313690,300.540894 434.685425,301.490265 431.978424,310.816406 
	C431.839111,311.296326 431.658936,311.767151 431.556244,312.254547 
	C426.904480,334.326996 428.547363,355.872894 436.931030,376.866180 
	C437.435638,378.129700 438.625793,379.499725 436.836975,381.016693 
	C434.297089,378.828125 433.882202,375.634399 432.598572,372.862823 
	C431.379059,370.229736 429.941132,367.664398 428.712158,365.026001 
	C437.201477,392.588593 453.232178,414.650299 477.955414,429.603699 
	C504.124969,445.431885 532.385437,450.283569 562.582336,443.908813 
	C584.529419,439.275696 603.073303,428.633972 619.214417,413.511353 
	C623.291626,409.691406 626.519226,404.943756 629.976318,400.497253 
	C630.854919,399.367188 632.384827,397.241302 628.207275,397.537628 
M552.620544,224.937653 
	C544.378845,223.427505 536.014526,222.616226 527.810791,224.352219 
	C516.167236,226.816132 504.090759,228.336700 494.354553,236.304977 
	C488.281555,241.275192 482.674408,247.868454 476.465698,244.061188 
	C482.262665,250.373932 490.083649,258.746033 497.723206,267.280518 
	C500.822784,270.743134 503.716278,270.784943 507.798615,268.746674 
	C516.769958,264.267395 526.372742,261.824371 536.492615,261.619019 
	C547.993835,261.385651 558.884277,263.868866 569.074646,269.090820 
	C572.333191,270.760590 574.481201,270.301056 576.972595,267.813293 
	C580.855530,263.936066 585.095764,260.419312 589.119263,256.679504 
	C593.337524,252.758621 597.478882,248.754868 602.567810,243.918823 
	C599.126099,243.673645 597.566284,242.829926 595.931152,242.174271 
	C591.011658,240.201614 587.798035,235.876465 583.139893,233.558167 
	C573.755127,228.887451 563.634888,226.965027 552.620544,224.937653 
z"/>
</svg>